<svg id="lw-an-b" xmlns="http://www.w3.org/2000/svg" xmlns:xlink="http://www.w3.org/1999/xlink" viewBox="0 0 1593 258.49">
  <style>
    @-webkit-keyframes draw-in {
      from {
        stroke-dashoffset: 461;
      }
      to {
        stroke-dashoffset: 0;
      }
    }

    @keyframes draw-in {
      from {
        stroke-dashoffset: 461;
      }
      to {
        stroke-dashoffset: 0;
      }
    }

    @-webkit-keyframes draw-in-hover {
      from {
        stroke-dashoffset: 461;
      }
      to {
        stroke-dashoffset: 0;
      }
    }

    @keyframes draw-in-hover {
      from {
        stroke-dashoffset: 461;
      }
      to {
        stroke-dashoffset: 0;
      }
    }

    @-webkit-keyframes fade-in {
      to {
        opacity: 1;
      }
    }

    @keyframes fade-in {
      to {
        opacity: 1;
      }
    }

    @-webkit-keyframes hover-icon {
      to {
        -webkit-transform: translateY(-20px);
        transform: translateY(-20px);
      }
    }

    @keyframes hover-icon {
      to {
        -webkit-transform: translateY(-20px);
        transform: translateY(-20px);
      }
    }

    #lw-an-b:hover #icon-1 {
      stroke-dasharray: 461;
      stroke-dashoffset: 461;
      -webkit-animation: draw-in-hover .8s cubic-bezier(.21,.01,.42,.99) both;
      animation: draw-in-hover .8s cubic-bezier(.21,.01,.42,.99) both;
    }

    #lw-an-b:hover #icon-2 {
      stroke-dasharray: 461;
      stroke-dashoffset: 461;
      -webkit-animation: draw-in-hover .8s .08s cubic-bezier(.21,.01,.42,.99) both;
      animation: draw-in-hover .8s .08s cubic-bezier(.21,.01,.42,.99) both;
    }

    #lw-an-b #letters {
      opacity: 0;
      -webkit-animation: fade-in 1s ease-in-out both;
      animation: fade-in 1s ease-in-out both;
    }

    #lw-an-b #icon-1 {
      stroke-dasharray: 461;
      stroke-dashoffset: 0;
      -webkit-animation: draw-in .8s .5s cubic-bezier(.21,.01,.42,.99) both;
      animation: draw-in .8s .5s cubic-bezier(.21,.01,.42,.99) both;
    }
    #lw-an-b #icon-2 {
      stroke-dasharray: 461;
      stroke-dashoffset: 0;
      -webkit-animation: draw-in .8s .58s cubic-bezier(.21,.01,.42,.99) both;
      animation: draw-in .8s .58s cubic-bezier(.21,.01,.42,.99) both;
    }
  </style>
  <defs>
    <mask id="lw-m-b" x="378.51" y="12.27" width="409.04" height="239.56" maskUnits="userSpaceOnUse">
      <path id="icon-mask" d="M763,29.76l-1,2.95c-1.48,2.78-4.24,5.92-5.6,7.82A102.58,102.58,0,0,1,747.81,51a137.33,137.33,0,0,1-20.57,17.8c-37.07,26.4-82.55,42.93-127.38,49.53-12.4,1.83-24.87,3-37.34,4.16-2.75.12-5.5.32-8.24.53q-10.74.8-21.42,2-14.86,1.7-29.61,4.22c-11,1.91-22,4.2-32.81,7.09a210.74,210.74,0,0,0-31,10.63,105.83,105.83,0,0,0-18.54,10.28s-19.9,10-23.9,37.13a55.92,55.92,0,0,0-.54,10.66,16.54,16.54,0,0,0,.35,2.89.43.43,0,0,0,0,.16,10.75,10.75,0,0,0,.47,1.49h0s1.32,5.31,9.32,6.62h0V212c-.17,0-1-1.29-1.05-1.45a10.89,10.89,0,0,1-.87-1.7,7.08,7.08,0,0,1-.46-3.64,13.61,13.61,0,0,1,3.27-6.8c4.52-5.28,11.16-8.39,17.36-11.19,2.9-1.3,5.86-2.54,8.85-3.61a250.09,250.09,0,0,1,32.54-9.21c25.62-5.39,51.92-7.79,78.18-9.39,25.88-1.57,52-2.63,77.41-7.26a225.18,225.18,0,0,0,65.94-23.06,166.53,166.53,0,0,0,32.74-22.78l.25-.2C766.06,73.21,763,29.76,763,29.76Z" fill="#fff"/>
    </mask>
  </defs>
  <g id="letters">
    <polygon id="let-1" points="51.7 210.58 51.7 0 0 0 0 258.49 132.59 258.49 150.49 210.58 51.7 210.58" fill="#2a2b2a"/>
    <path id="let-2" d="M322.52,198.27H220.26l-21.4,60.22H144.51L241.09,0h61l96.58,258.49H343.92Zm-17-47.91L271.39,54.92,237.3,150.36Z" fill="#2a2b2a"/>
    <path id="let-3" d="M582,47.52,467.73,210.39H531v48.1H406.67v-48.1l116-162.86H411.1V0H582Z" fill="#2a2b2a"/>
    <polygon id="let-4" points="602.38 210.39 716.67 47.52 716.67 0 593.45 0 593.45 47.53 657.3 47.53 541.33 210.39 541.33 258.49 701.43 258.49 719.4 210.39 602.38 210.39" fill="#2a2b2a"/>
    <path id="let-5" d="M891.36,198.27H789.1l-21.4,60.22H713.35L809.93,0h61l96.59,258.49H912.76Zm-17.05-47.91L840.23,54.92l-34.09,95.44Z" fill="#2a2b2a"/>
    <path id="let-6" d="M937.65,0l63.43,165.51L1050.7,0h42.61l49.8,165.7L1202.57,0h53.78l-93.16,258.49H1121L1072,96.77l-48.86,161.72H981L883.68,0Z" fill="#2a2b2a"/>
    <path id="let-7" d="M1412.38,0V47.53H1315.8v56.25h85.79V151.5H1315.8v59.08H1416v47.91H1264.29V0Z" fill="#2a2b2a"/>
    <path id="let-8" d="M1424.46,258.49V0h62.12q38.06,0,58.89,12.12A68.31,68.31,0,0,1,1571,38.06a68.56,68.56,0,0,1,9.84,35q0,26.32-21.21,47.15a74.44,74.44,0,0,1,18.37,16.9,72.48,72.48,0,0,1,15,44.69,69.88,69.88,0,0,1-19.5,49.42,80.91,80.91,0,0,1-31.25,20.83q-17.61,6.45-43.74,6.44Zm50.37-153.39h15.91q19.32,0,27.08-4.35Q1532,93.18,1532,75q0-15.52-9.75-22.44t-31.53-6.91h-15.91Zm0,106.81h21.59q21.21,0,30.68-5.31,15.53-8.52,15.53-26.7a31.76,31.76,0,0,0-3.79-15.24,26.17,26.17,0,0,0-10-10.7q-10.6-6.26-35.79-6.25h-18.18Z" fill="#2a2b2a"/>
  </g>
  <g mask="url(#lw-m-b)" id="icon-line">
    <g>
      <path id="icon-1" d="M417.69,230.07c-17.43-9.86-23.1-37.22,8.25-59.16,31.19-21.82,92.15-20,172.74-30.5,66.6-8.65,119.11-35.83,167.54-115.1" fill="none" stroke="#fff" stroke-miterlimit="10" stroke-width="50"/>
      <path id="icon-2" d="M417.69,230.07c-17.43-9.86-23.1-37.22,8.25-59.16,31.19-21.82,92.15-20,172.74-30.5,66.6-8.65,119.11-35.83,167.54-115.1" fill="none" stroke="#0fb5c8" stroke-miterlimit="10" stroke-width="50"/>
    </g>
  </g>
</svg>